Coordinates
version=1
nRows=5
nColumns=40
inDegrees=yes

Units are S.I. units (second, meters, Newtons, ...)
Angles are in degrees.

endheader
time	pelvis_tilt	pelvis_list	pelvis_rotation	pelvis_tx	pelvis_ty	pelvis_tz	hip_flexion_r	hip_adduction_r	hip_rotation_r	knee_angle_r	knee_angle_r_beta	ankle_angle_r	subtalar_angle_r	mtp_angle_r	hip_flexion_l	hip_adduction_l	hip_rotation_l	knee_angle_l	knee_angle_l_beta	ankle_angle_l	subtalar_angle_l	mtp_angle_l	lumbar_extension	lumbar_bending	lumbar_rotation	arm_flex_r	arm_add_r	arm_rot_r	elbow_flex_r	pro_sup_r	wrist_flex_r	wrist_dev_r	arm_flex_l	arm_add_l	arm_rot_l	elbow_flex_l	pro_sup_l	wrist_flex_l	wrist_dev_l
     35.52228571	     -6.85434178	     -6.36506278	      6.28177099	      1.10443090	      0.92668619	      0.49698906	     13.52586790	      3.46564463	    -15.13632337	     15.69618141	     15.69618141	     10.79732266	     -3.38465528	     -2.34320371	     41.58384145	     -8.84922795	      6.18697079	     61.13561748	     61.13561748	      9.50692348	    -19.22752674	     18.24035835	    -12.88591217	      5.32988458	      2.89413405	     20.91736720	    -21.72722988	     -3.36215816	     79.16113798	     44.78267725	      0.00000000	      0.00000000	      6.25663822	     -8.76961139	     -5.20402786	     59.51449747	     47.55082945	      0.00000000	      0.00000000
     35.53457143	     -7.02800366	     -6.24377763	      6.49878679	      1.10262223	      0.92662647	      0.49623519	     13.14167562	      3.34296766	    -15.18550998	     15.40505052	     15.40505052	     11.02006526	     -3.38314005	     -2.41670705	     42.23166413	     -8.36294851	      6.17876748	     58.26183000	     58.26183000	      9.83827740	    -19.19759523	     18.30339437	    -12.90089043	      5.23494283	      3.23348716	     22.00587572	    -21.93157711	     -4.12721994	     82.08162459	     44.75494856	      0.00000000	      0.00000000	      6.90604214	     -8.29170110	     -5.11638208	     54.66334158	     47.44525150	      0.00000000	      0.00000000
     35.54685714	     -7.21890159	     -6.09931698	      6.66959011	      1.10089020	      0.92647144	      0.49530177	     12.80066932	      3.16160659	    -15.28482360	     15.18742178	     15.18742178	     11.26486756	     -3.27468997	     -2.50514613	     42.70023886	     -7.80673951	      6.24537739	     55.15380310	     55.15380310	      9.96414169	    -19.11662995	     17.90339457	    -12.89307136	      5.12898761	      3.21867065	     23.58934988	    -21.91876698	     -4.19444782	     84.39927774	     44.71986421	      0.00000000	      0.00000000	      7.14573757	     -8.03241596	     -5.05404609	     50.40263626	     47.35499483	      0.00000000	      0.00000000
     35.55914286	     -7.40054470	     -5.93765643	      6.79330072	      1.09928843	      0.92623836	      0.49421020	     12.47403583	      2.95210845	    -15.33814117	     15.04210575	     15.04210575	     11.53990662	     -3.19598409	     -2.59668477	     42.97867516	     -7.18120915	      6.44119202	     51.89461253	     51.89461253	     10.14733250	    -18.95024821	     17.68437017	    -12.92148127	      5.01222036	      2.77816848	     25.52151120	    -21.34384499	     -4.20351967	     86.49452019	     44.67158348	      0.00000000	      0.00000000	      6.54083208	     -8.05077010	     -4.95844682	     47.83670607	     47.29827699	      0.00000000	      0.00000000
     35.57142857	     -7.59377280	     -5.75981467	      6.82234614	      1.09781407	      0.92598047	      0.49299732	     12.16311730	      2.69902750	    -15.44079764	     14.93342361	     14.93342361	     11.86746146	     -2.86131102	     -2.68049045	     43.01775837	     -6.60109310	      6.61443188	     48.36787716	     48.36787716	      9.76743114	    -18.71029964	     15.97487771	    -12.87406833	      4.89502643	      3.21267466	     26.79672241	    -21.64279067	     -4.13748331	     88.74202225	     44.64425039	      0.00000000	      0.00000000	      7.40674097	     -7.48963593	     -5.13146192	     42.48738342	     47.21935975	      0.00000000	      0.00000000
